<svg id="svg" version="1.1" xmlns="http://www.w3.org/2000/svg" xmlns:xlink="http://www.w3.org/1999/xlink" width="400" height="1000" viewBox="0, 0, 400,1000"><g id="svgg"><path id="path0" d="M46.458 90.806 L 43.125 91.042 43.000 93.438 C 42.911 95.148,42.709 95.833,42.295 95.833 C 41.390 95.833,38.750 97.523,38.750 98.102 C 38.750 98.387,38.397 98.941,37.964 99.332 C 37.532 99.723,37.063 100.622,36.921 101.331 C 36.628 102.800,35.626 103.717,34.295 103.737 C 33.793 103.744,33.267 103.938,33.125 104.167 C 32.983 104.396,32.529 104.583,32.115 104.583 C 30.852 104.583,29.169 106.236,28.221 108.408 C 27.459 110.153,26.869 110.750,24.372 112.307 C 21.230 114.266,19.583 116.064,19.583 117.539 C 19.583 118.467,17.867 120.237,16.563 120.656 C 16.161 120.784,15.833 121.064,15.833 121.278 C 15.833 121.492,15.495 121.667,15.082 121.667 C 13.517 121.667,11.667 124.233,11.667 126.404 C 11.667 127.498,11.432 128.654,11.146 128.974 C 10.029 130.219,9.583 130.808,9.583 131.038 C 9.583 131.405,7.101 133.750,6.713 133.750 C 6.525 133.750,5.866 134.219,5.248 134.792 C 4.364 135.611,3.684 135.833,2.062 135.833 L 0.000 135.833 0.000 508.333 L 0.000 880.833 1.860 880.833 C 3.291 880.833,3.823 881.025,4.164 881.662 C 4.408 882.118,5.118 882.756,5.742 883.080 C 7.311 883.894,12.465 889.021,12.922 890.222 C 13.128 890.763,13.819 891.544,14.458 891.957 C 15.097 892.370,16.465 893.504,17.498 894.477 C 18.530 895.450,19.512 896.246,19.679 896.248 C 19.846 896.249,20.971 897.237,22.179 898.443 C 24.567 900.827,27.233 902.979,28.290 903.376 C 28.658 903.514,29.371 903.767,29.876 903.940 C 30.655 904.206,30.813 904.612,30.918 906.606 L 31.042 908.958 32.917 909.240 C 35.363 909.607,89.637 909.607,92.083 909.240 L 93.958 908.958 94.082 906.606 C 94.187 904.612,94.345 904.206,95.124 903.940 C 95.629 903.767,96.342 903.514,96.710 903.376 C 97.767 902.979,100.433 900.827,102.821 898.443 C 104.029 897.237,105.154 896.249,105.321 896.248 C 105.488 896.246,106.470 895.450,107.502 894.477 C 108.535 893.504,109.903 892.370,110.542 891.957 C 111.181 891.544,111.871 890.768,112.075 890.231 C 112.538 889.013,117.183 884.384,119.263 883.067 C 120.118 882.526,120.904 881.661,121.009 881.146 C 121.114 880.630,121.293 879.740,121.408 879.167 C 122.874 871.850,123.839 869.879,127.174 867.386 C 129.976 865.292,130.417 863.550,130.417 854.561 L 130.417 846.728 131.731 846.072 C 133.224 845.327,134.827 845.217,135.208 845.833 C 135.350 846.063,136.088 846.250,136.849 846.250 C 137.610 846.250,138.481 846.551,138.787 846.920 C 139.589 847.886,200.420 847.630,202.083 846.653 C 204.111 845.463,204.945 844.475,205.201 842.960 C 205.413 841.704,205.738 841.302,207.001 840.728 C 207.848 840.343,209.198 839.669,210.000 839.231 C 210.802 838.793,212.191 838.084,213.086 837.655 C 215.487 836.504,221.090 830.907,221.374 829.375 C 221.919 826.436,222.561 823.908,222.934 823.235 C 223.153 822.837,223.333 822.291,223.333 822.022 C 223.333 821.753,224.561 820.317,226.061 818.832 C 230.227 814.706,230.196 814.826,230.203 803.085 C 230.207 795.123,230.083 792.794,229.602 791.835 C 228.836 790.306,227.491 788.756,226.907 788.730 C 226.249 788.701,223.333 784.914,223.333 784.089 C 223.333 783.700,223.168 783.280,222.965 783.155 C 222.763 783.030,222.469 781.897,222.311 780.637 C 222.154 779.377,221.851 778.239,221.638 778.107 C 221.424 777.975,221.250 777.246,221.250 776.487 C 221.250 775.067,218.926 772.500,217.641 772.500 C 217.334 772.500,217.083 772.313,217.083 772.083 C 217.083 771.854,216.766 771.667,216.378 771.667 C 215.525 771.667,212.662 768.685,212.271 767.389 C 211.879 766.093,209.992 764.167,209.113 764.167 C 208.711 764.167,208.274 763.991,208.141 763.776 C 207.283 762.388,205.119 761.924,198.750 761.763 C 195.198 761.674,192.114 761.428,191.896 761.217 C 191.336 760.675,139.710 760.707,139.375 761.250 C 139.233 761.479,138.191 761.667,137.059 761.667 C 135.926 761.667,135.000 761.854,135.000 762.083 C 135.000 762.626,132.627 762.626,132.292 762.083 C 132.150 761.854,131.670 761.667,131.225 761.667 C 130.436 761.667,130.417 761.186,130.417 741.697 L 130.417 721.728 131.731 721.072 C 133.195 720.342,135.833 720.188,135.833 720.833 C 135.833 721.063,136.373 721.250,137.032 721.250 C 137.692 721.250,138.481 721.551,138.787 721.920 C 139.642 722.950,200.375 722.577,202.328 721.530 C 204.087 720.587,204.852 719.634,205.213 717.940 C 205.632 715.969,209.521 713.309,211.957 713.327 C 212.834 713.333,216.601 711.555,217.067 710.914 C 217.191 710.744,217.805 710.279,218.432 709.880 C 219.573 709.154,221.250 706.404,221.250 705.259 C 221.250 704.924,221.514 704.120,221.836 703.471 C 222.159 702.822,222.609 701.823,222.836 701.250 C 223.478 699.630,224.555 697.374,225.116 696.476 C 225.658 695.607,225.764 695.478,227.720 693.288 C 230.232 690.475,231.595 676.404,229.956 670.208 C 229.713 669.292,229.416 668.032,229.295 667.410 C 229.175 666.787,228.265 665.443,227.273 664.422 C 225.230 662.320,223.333 659.493,223.333 658.550 C 223.333 658.202,223.146 657.917,222.917 657.917 C 222.688 657.917,222.500 657.368,222.500 656.696 C 222.500 656.025,222.219 655.195,221.875 654.851 C 221.531 654.507,221.250 653.757,221.250 653.184 C 221.250 652.553,220.697 651.597,219.847 650.759 C 217.558 648.501,214.277 645.833,213.788 645.833 C 213.538 645.833,213.333 645.596,213.333 645.305 C 213.333 644.602,209.700 640.833,209.022 640.833 C 208.729 640.833,207.950 640.270,207.291 639.582 C 204.992 637.183,203.240 636.667,197.393 636.667 C 194.335 636.667,192.025 636.492,191.875 636.250 C 191.708 635.979,182.504 635.833,165.625 635.833 C 148.746 635.833,139.542 635.979,139.375 636.250 C 139.233 636.479,138.191 636.667,137.059 636.667 C 135.926 636.667,135.000 636.854,135.000 637.083 C 135.000 637.313,134.449 637.500,133.775 637.500 C 133.101 637.500,132.433 637.313,132.292 637.083 C 132.150 636.854,131.670 636.667,131.225 636.667 C 130.139 636.667,129.928 514.180,131.012 513.095 C 131.707 512.400,136.667 512.249,136.667 512.923 C 136.667 513.207,154.312 513.309,190.551 513.235 C 249.897 513.114,245.222 513.329,246.234 510.668 C 246.485 510.007,247.075 509.509,247.798 509.348 C 248.436 509.205,249.549 508.825,250.271 508.503 C 250.993 508.180,251.855 507.917,252.186 507.917 C 252.870 507.917,254.167 506.622,254.167 505.938 C 254.167 505.633,256.606 505.439,261.634 505.346 C 268.707 505.216,269.154 505.159,270.098 504.271 C 270.647 503.755,271.566 503.333,272.142 503.333 C 272.719 503.333,273.627 502.866,274.167 502.292 C 274.705 501.719,275.364 501.250,275.630 501.250 C 276.294 501.250,279.166 498.756,279.169 498.176 C 279.173 497.431,281.604 496.250,283.134 496.250 C 283.904 496.250,284.650 496.063,284.792 495.833 C 284.933 495.604,285.653 495.417,286.391 495.417 C 287.128 495.417,288.312 494.995,289.022 494.479 C 292.171 492.191,294.853 490.042,295.585 489.222 C 296.022 488.733,296.634 488.333,296.945 488.333 C 297.257 488.333,297.837 488.155,298.235 487.937 C 298.633 487.719,299.708 487.219,300.625 486.825 C 303.095 485.766,305.417 482.960,305.417 481.035 C 305.417 480.566,306.477 479.700,307.415 479.402 C 307.920 479.242,308.333 478.936,308.333 478.722 C 308.333 478.508,308.831 478.333,309.440 478.333 C 311.214 478.333,313.330 476.461,313.349 474.875 C 313.363 473.673,316.854 470.417,318.128 470.417 C 318.844 470.417,321.250 468.135,321.250 467.456 C 321.250 466.220,323.406 463.511,325.000 462.743 C 328.627 460.997,330.375 459.325,330.402 457.574 C 330.416 456.619,331.281 455.417,331.954 455.417 C 332.144 455.417,332.806 454.948,333.424 454.375 C 334.041 453.802,334.873 453.333,335.272 453.333 C 336.752 453.333,338.333 451.239,338.333 449.279 C 338.333 447.473,338.547 447.038,340.292 445.292 C 341.645 443.940,342.423 443.333,342.804 443.333 C 343.555 443.333,346.250 440.721,346.250 439.994 C 346.250 439.566,346.438 439.100,346.667 438.958 C 346.896 438.817,347.083 438.412,347.083 438.059 C 347.083 436.572,348.672 434.188,351.531 431.386 C 354.948 428.036,355.417 427.145,355.417 423.995 C 355.417 420.973,356.169 419.704,360.015 416.236 L 363.333 413.245 363.333 409.649 C 363.333 404.978,366.715 398.333,369.093 398.333 C 369.845 398.333,371.250 395.386,371.250 393.810 C 371.250 392.952,371.437 392.063,371.666 391.834 C 371.894 391.606,372.204 389.131,372.355 386.334 C 372.505 383.538,372.787 381.250,372.981 381.250 C 373.175 381.250,373.333 380.781,373.333 380.208 C 373.333 379.635,373.521 379.167,373.750 379.167 C 373.979 379.167,374.167 378.924,374.167 378.628 C 374.167 378.022,376.450 375.594,378.086 374.460 C 378.680 374.048,379.167 373.354,379.167 372.918 C 379.167 372.245,379.529 372.106,381.563 372.000 L 383.958 371.875 384.234 369.792 C 384.592 367.094,384.587 239.687,384.230 236.667 L 383.958 234.375 381.875 234.249 C 378.962 234.073,375.190 230.139,373.008 225.000 C 372.764 224.427,372.456 221.624,372.323 218.770 C 372.190 215.916,371.894 213.394,371.666 213.166 C 371.437 212.937,371.250 212.074,371.250 211.248 C 371.250 209.920,370.912 209.438,368.333 207.083 C 366.729 205.619,365.417 204.082,365.417 203.669 C 365.417 203.255,365.229 202.917,365.000 202.917 C 364.771 202.917,364.582 202.589,364.581 202.188 C 364.579 201.786,364.298 200.921,363.956 200.265 C 363.582 199.549,363.333 197.942,363.333 196.251 C 363.333 193.440,363.326 193.423,361.417 191.611 C 356.939 187.358,356.250 186.535,356.250 185.434 C 356.250 184.966,356.063 184.583,355.833 184.583 C 355.603 184.583,355.417 183.490,355.417 182.136 C 355.417 178.210,352.639 173.750,350.193 173.750 C 349.494 173.750,347.516 170.914,347.293 169.590 C 346.644 165.750,345.565 164.042,342.708 162.335 C 340.814 161.203,338.333 157.428,338.333 155.677 C 338.333 154.384,337.845 153.731,333.976 149.858 C 331.323 147.202,329.506 145.032,329.331 144.310 C 329.063 143.205,326.921 140.833,326.192 140.833 C 326.013 140.833,325.122 140.130,324.211 139.271 C 322.620 137.769,320.216 135.953,317.948 134.539 C 317.358 134.170,315.885 132.905,314.674 131.726 C 313.464 130.548,312.198 129.583,311.862 129.583 C 311.525 129.583,311.250 129.396,311.250 129.167 C 311.250 128.938,310.904 128.750,310.481 128.750 C 310.058 128.750,309.368 128.369,308.946 127.903 C 308.525 127.437,307.558 126.672,306.798 126.203 C 306.038 125.733,305.417 125.160,305.417 124.930 C 305.417 124.228,302.778 121.667,302.054 121.667 C 301.398 121.667,297.783 119.906,296.823 119.119 C 296.565 118.908,296.265 117.799,296.155 116.655 C 295.933 114.348,294.938 112.917,293.557 112.917 C 293.063 112.917,292.295 112.641,291.850 112.305 C 291.292 111.882,289.955 111.689,287.527 111.680 C 283.256 111.664,280.557 110.612,280.182 108.816 C 280.054 108.207,279.773 107.383,279.558 106.985 C 279.343 106.587,279.167 105.879,279.167 105.412 C 279.167 104.122,277.474 103.706,271.667 103.567 C 265.778 103.426,263.202 102.854,260.204 101.019 C 259.061 100.320,257.469 99.491,256.667 99.179 C 254.704 98.414,254.167 97.957,254.167 97.053 C 254.167 96.634,253.897 96.140,253.567 95.956 C 253.188 95.744,252.920 94.779,252.838 93.331 L 252.708 91.042 249.167 90.771 C 244.849 90.440,51.147 90.473,46.458 90.806 M242.708 230.833 C 242.850 231.063,243.321 231.250,243.755 231.250 C 244.262 231.250,244.799 231.808,245.257 232.813 C 246.198 234.872,247.463 236.250,248.414 236.250 C 248.837 236.250,249.926 236.719,250.833 237.292 C 252.054 238.062,253.055 238.333,254.679 238.333 C 257.064 238.333,259.927 240.301,260.592 242.396 C 260.756 242.912,261.064 243.333,261.278 243.333 C 261.492 243.333,261.667 244.416,261.667 245.738 C 261.667 248.161,263.363 251.250,264.693 251.250 C 265.468 251.250,268.368 254.712,268.619 255.938 C 268.748 256.568,269.018 257.083,269.219 257.083 C 269.744 257.083,269.692 296.550,269.167 296.875 C 268.938 297.017,268.750 297.684,268.750 298.358 C 268.750 299.032,268.575 299.583,268.361 299.583 C 268.148 299.583,267.842 299.996,267.681 300.501 C 267.521 301.006,267.180 301.637,266.924 301.903 C 261.755 307.263,261.667 307.435,261.667 312.142 C 261.667 314.791,261.464 316.589,261.077 317.362 C 260.753 318.011,260.087 319.385,259.598 320.417 C 259.009 321.657,258.032 322.752,256.713 323.651 C 255.616 324.399,254.479 325.524,254.186 326.151 C 253.893 326.778,253.487 327.617,253.285 328.015 C 253.082 328.413,252.917 329.127,252.917 329.601 C 252.917 331.791,248.317 337.917,246.672 337.917 C 246.280 337.917,244.583 341.244,244.583 342.012 C 244.583 343.095,241.750 346.667,240.891 346.667 C 239.823 346.667,236.667 350.334,236.667 351.576 C 236.667 352.553,236.343 353.086,235.313 353.806 C 234.568 354.326,233.863 354.886,233.746 355.051 C 233.629 355.216,233.047 355.473,232.452 355.622 C 231.098 355.962,228.750 358.067,228.750 358.940 C 228.750 360.602,226.582 362.897,223.750 364.231 C 221.597 365.246,220.134 366.774,219.783 368.375 C 219.511 369.610,217.437 371.667,216.462 371.667 C 216.116 371.667,215.833 371.854,215.833 372.083 C 215.833 372.313,215.444 372.500,214.968 372.500 C 213.937 372.500,211.667 374.648,211.667 375.623 C 211.667 376.432,210.695 377.500,209.958 377.500 C 209.674 377.500,209.089 377.818,208.659 378.207 C 207.957 378.843,207.638 378.858,205.502 378.357 C 204.194 378.050,202.188 377.715,201.042 377.611 C 199.896 377.508,198.780 377.253,198.563 377.045 C 198.345 376.837,197.735 376.667,197.208 376.667 C 196.498 376.667,196.250 376.429,196.250 375.749 C 196.250 374.779,193.929 372.083,193.094 372.083 C 192.824 372.083,192.369 371.802,192.083 371.458 C 191.739 371.043,190.804 370.833,189.297 370.833 C 188.049 370.833,186.619 370.599,186.118 370.313 C 185.534 369.978,183.343 369.779,180.000 369.757 C 171.107 369.698,171.250 369.716,171.250 368.630 C 171.250 367.653,168.274 364.516,166.250 363.361 C 165.677 363.034,163.658 362.682,161.763 362.580 C 159.868 362.478,158.216 362.231,158.092 362.031 C 157.969 361.830,157.035 361.667,156.017 361.667 C 154.674 361.667,154.167 361.500,154.167 361.059 C 154.167 360.436,149.649 355.840,149.033 355.836 C 148.844 355.834,148.409 355.552,148.065 355.208 C 147.701 354.843,146.683 354.583,145.620 354.583 C 144.618 354.583,143.683 354.396,143.542 354.167 C 143.400 353.938,142.826 353.750,142.267 353.750 C 141.708 353.750,141.250 353.605,141.250 353.428 C 141.250 353.251,140.604 352.758,139.814 352.333 C 138.727 351.747,138.347 351.248,138.252 350.276 C 138.113 348.874,135.537 346.713,133.958 346.674 C 133.089 346.652,130.792 344.832,130.269 343.750 C 129.126 341.384,128.211 340.496,126.146 339.750 C 125.745 339.605,125.417 339.321,125.417 339.118 C 125.417 338.916,125.231 338.750,125.003 338.750 C 124.114 338.750,122.498 336.872,122.250 335.550 C 122.106 334.784,121.823 334.055,121.619 333.929 C 121.416 333.804,121.250 333.289,121.250 332.785 C 121.250 331.927,118.187 329.583,117.066 329.583 C 115.239 329.583,113.333 326.110,113.333 322.782 C 113.333 319.332,111.936 316.667,110.126 316.667 C 109.540 316.667,106.788 313.958,105.937 312.544 C 105.591 311.967,105.405 309.692,105.382 305.735 C 105.362 302.466,105.156 298.667,104.924 297.292 C 104.129 292.584,104.054 286.484,104.765 284.389 C 105.223 283.042,105.417 280.876,105.417 277.116 C 105.417 270.946,106.260 268.756,109.168 267.371 C 111.238 266.385,112.412 265.346,113.333 263.684 C 114.481 261.613,116.008 259.987,118.542 258.138 C 119.458 257.468,120.368 256.658,120.564 256.338 C 121.780 254.341,136.483 253.123,141.253 254.625 C 142.053 254.877,144.615 255.143,146.946 255.217 C 151.607 255.364,153.545 256.321,153.831 258.616 C 153.919 259.320,154.474 259.902,155.625 260.497 C 156.542 260.972,157.573 261.528,157.917 261.734 C 158.260 261.939,158.870 262.218,159.271 262.352 C 159.672 262.487,160.000 262.763,160.000 262.965 C 160.000 263.168,160.375 263.333,160.833 263.333 C 161.388 263.333,161.667 263.611,161.667 264.165 C 161.667 265.005,164.367 268.333,165.048 268.333 C 165.249 268.333,166.110 268.990,166.961 269.792 C 167.811 270.594,168.728 271.250,168.997 271.250 C 169.277 271.250,169.607 272.208,169.767 273.486 C 169.983 275.216,170.329 275.993,171.300 276.923 L 172.555 278.125 178.882 278.125 C 185.104 278.125,186.960 277.845,190.271 276.404 C 190.993 276.090,192.036 275.833,192.589 275.833 C 194.131 275.833,195.863 273.754,196.107 271.609 C 196.221 270.609,196.472 269.417,196.666 268.958 C 196.860 268.500,197.133 265.969,197.272 263.333 C 197.411 260.698,197.707 258.479,197.929 258.403 C 198.151 258.326,198.333 257.811,198.333 257.257 C 198.333 256.703,198.508 256.250,198.722 256.250 C 198.936 256.250,199.229 255.875,199.375 255.417 C 199.520 254.959,200.439 253.788,201.417 252.813 C 204.197 250.042,204.955 248.687,205.231 245.991 C 205.653 241.870,208.312 238.333,210.989 238.333 C 213.135 238.333,214.862 237.896,215.700 237.141 C 216.117 236.766,217.173 236.083,218.047 235.625 C 219.791 234.710,220.724 233.819,221.431 232.393 C 221.706 231.838,222.356 231.405,223.030 231.326 C 223.655 231.254,224.167 231.020,224.167 230.806 C 224.167 230.264,242.373 230.291,242.708 230.833 " stroke="none" fill="#04bcfc" fill-rule="evenodd"></path><path id="path1" d="" stroke="none" fill="#08bcfc" fill-rule="evenodd"></path><path id="path2" d="" stroke="none" fill="#08bcfc" fill-rule="evenodd"></path><path id="path3" d="" stroke="none" fill="#08bcfc" fill-rule="evenodd"></path><path id="path4" d="" stroke="none" fill="#08bcfc" fill-rule="evenodd"></path></g></svg>